<svg xmlns="http://www.w3.org/2000/svg" data-name="Layer 1" viewBox="0 0 100 125" x="0px" y="0px"><title>virus</title><path d="M36.24,64.68c-2.89,2.71-6.06,5.58-9,8.36-1.16,1.08-2.34,2.13-3.53,3.17a1.48,1.48,0,0,0-.59,1.93c.61,1.66-.93,4.13-2.72,4.82a4.42,4.42,0,0,1-4.79-1.26A4.89,4.89,0,0,1,14.33,78a3.56,3.56,0,0,1,3.45-3.3c1.78.12,3.36,0,4.77-1.41C25.74,70,29,66.84,32.38,63.84c1.52-1.33,2-1.63,1.74-2.07a18.36,18.36,0,0,1-2.73-7.69c-.05-.38-4.85,0-6.88.11a1.33,1.33,0,0,0-1,.61,3,3,0,0,1-2.78,2.38,4.05,4.05,0,0,1-4.08-1.88,4.25,4.25,0,0,1,.29-5.82,3.66,3.66,0,0,1,4.78.17c1.38,1.64,2.86,1.55,4.83,1.58,1.67,0,3,0,4.58,0,.07-1.66,1-6.77,2-8.38.09-.24-11.53-6.48-15-8.4a1.62,1.62,0,0,0-2.21.27c-1.55,1.36-3.45,1.06-5.24.28a3.25,3.25,0,0,1-2-3.5c.1-2.22,2.13-4.6,4-4.63a4.19,4.19,0,0,1,4.09,3.5c.1.41.25,1,.55,1.13q5.34,3,10.74,5.81c2.07,1.1,4.27,2.21,6.3,3.23a22.58,22.58,0,0,1,4.42-4.82c-1.21-1.76-2.58-3.78-4-5.65a4.22,4.22,0,0,0-2.16-.91c-1.85-.47-2.88-3.54-2.47-5.26.34-1.43,2.12-1.81,3.17-2,3.34-.58,5.3,2.63,4.22,5.83a1.66,1.66,0,0,0,0,1.22c1.1,1.79,2.17,3.34,3.43,5.26a21.14,21.14,0,0,1,8.12-2.6s.57-8.32.71-11.95a1.34,1.34,0,0,0-.58-.9c-.58-.42-1.29-.67-1.85-1.12-1.7-1.39-2.2-3.6-.84-5.29.68-.86,3-1.45,4.2-1.65A4.56,4.56,0,0,1,55.25,13c.79,1.61-.33,4.14-1.6,5.35a2.41,2.41,0,0,0-.79,1.32c-.34,3.61-.89,11.85-.78,11.85a18.93,18.93,0,0,1,8.31,2.35c.23.13,1.7-2.37,2.37-3.28,1.05-1.4,1.5-1.38,1.54-2.52.29-1.89.91-4.87,2.7-5.84,2.37-1.28,5.81.32,6.23,2.23.56,2.5.17,5.2-2,5.88a13.62,13.62,0,0,1-3.91.64c-.4,0-1-.17-1.17,0-.93,1.16-3.36,4.35-3,4.57,2,1.29,5.7,5.7,6.44,8.65,3.81-1.59,7.76-3.16,11.49-4.85.6-.27,1-1.22,1.29-1.93a4.49,4.49,0,0,1,3.3-2.32,5.33,5.33,0,0,1,2.84.63c2.27,1,3,3.63,2.23,5.9a3.2,3.2,0,0,1-4.35,2.25,8,8,0,0,1-2.62-1.36,2.09,2.09,0,0,0-2.35-.36c-2.93,1.19-11.14,4.08-11,4.45a21,21,0,0,1-.79,12.14c2.56,1.14,7.57,3.32,7.62,3.26,1.1-1.42,3.5-1.38,4.78-.7A4.85,4.85,0,0,1,84.92,65c.26,2-1,4.63-2.65,4.87a5.9,5.9,0,0,1-6.18-4.44c-.11-.52.12-.82-.32-1.09-1.2-.63-6.08-2.84-7.21-3.3A20.94,20.94,0,0,1,61,68.61c.39.76,5.1,8.94,7,12.28a2.3,2.3,0,0,0,2.32,1.43A4.94,4.94,0,0,1,75,86.09c.41,2-2.43,4.67-4.76,4.52-3.11-.21-5.9-3.35-4.43-6.62a2.3,2.3,0,0,0-.27-1.74C63.32,78.14,61,73.9,58.71,69.73a20.44,20.44,0,0,1-12.07,1.12c-.49,2.08-.8,3.92-1.4,5.83s-.18,3.11,1.57,4c1.22.63,1.34,2.5.8,3.67a4.51,4.51,0,0,1-4.27,2.14,6.12,6.12,0,0,1-3.57-1.38c-1.86-1.5-1-4.94,1.19-5.87A2.1,2.1,0,0,0,41.85,78c.67-2.34,1.22-4.71,1.9-7,.28-.94.35-.87.09-1A20.53,20.53,0,0,1,36.24,64.68Z"/><text x="0" y="115" fill="#000000" font-size="5px" font-weight="bold" font-family="'Helvetica Neue', Helvetica, Arial-Unicode, Arial, Sans-serif">Created by Visual Glow</text><text x="0" y="120" fill="#000000" font-size="5px" font-weight="bold" font-family="'Helvetica Neue', Helvetica, Arial-Unicode, Arial, Sans-serif">from the Noun Project</text></svg>