<svg data-v-423bf9ae="" xmlns="http://www.w3.org/2000/svg" viewBox="0 0 622.3709346327374 60" class="font"><!----><!----><!----><g data-v-423bf9ae="" id="44f5a568-2183-4447-a86a-db6eadf8ccb7" fill="black" transform="matrix(5.736137646384677,0,0,5.736137646384677,-4.4168269051564835,-18.126194739656484)"><path d="M5.85 13.62L5.85 13.62Q4.41 13.62 3.25 12.98L3.25 12.98L3.25 12.98Q2.10 12.33 1.44 11.20L1.44 11.20L1.44 11.20Q0.77 10.07 0.77 8.65L0.77 8.65L0.77 8.65Q0.77 7.24 1.44 6.10L1.44 6.10L1.44 6.10Q2.10 4.97 3.25 4.33L3.25 4.33L3.25 4.33Q4.41 3.68 5.85 3.68L5.85 3.68L5.85 3.68Q6.92 3.68 7.81 4.02L7.81 4.02L7.81 4.02Q8.71 4.37 9.34 5.04L9.34 5.04L8.89 5.50L8.89 5.50Q7.71 4.34 5.88 4.34L5.88 4.34L5.88 4.34Q4.65 4.34 3.64 4.90L3.64 4.90L3.64 4.90Q2.63 5.46 2.06 6.45L2.06 6.45L2.06 6.45Q1.48 7.43 1.48 8.65L1.48 8.65L1.48 8.65Q1.48 9.87 2.06 10.86L2.06 10.86L2.06 10.86Q2.63 11.84 3.64 12.40L3.64 12.40L3.64 12.40Q4.65 12.96 5.88 12.96L5.88 12.96L5.88 12.96Q7.70 12.96 8.89 11.79L8.89 11.79L9.34 12.25L9.34 12.25Q8.71 12.92 7.81 13.27L7.81 13.27L7.81 13.27Q6.90 13.62 5.85 13.62L5.85 13.62ZM15.89 13.62L15.89 13.62Q14.45 13.62 13.29 12.97L13.29 12.97L13.29 12.97Q12.12 12.32 11.46 11.19L11.46 11.19L11.46 11.19Q10.79 10.05 10.79 8.65L10.79 8.65L10.79 8.65Q10.79 7.25 11.46 6.12L11.46 6.12L11.46 6.12Q12.12 4.98 13.29 4.33L13.29 4.33L13.29 4.33Q14.45 3.68 15.89 3.68L15.89 3.68L15.89 3.68Q17.33 3.68 18.49 4.33L18.49 4.33L18.49 4.33Q19.66 4.97 20.32 6.10L20.32 6.10L20.32 6.10Q20.99 7.24 20.99 8.65L20.99 8.65L20.99 8.65Q20.99 10.07 20.32 11.20L20.32 11.20L20.32 11.20Q19.66 12.33 18.49 12.98L18.49 12.98L18.49 12.98Q17.33 13.62 15.89 13.62L15.89 13.62ZM15.89 12.96L15.89 12.96Q17.12 12.96 18.12 12.40L18.12 12.40L18.12 12.40Q19.11 11.84 19.68 10.86L19.68 10.86L19.68 10.86Q20.26 9.87 20.26 8.65L20.26 8.65L20.26 8.65Q20.26 7.43 19.68 6.45L19.68 6.45L19.68 6.45Q19.11 5.46 18.12 4.90L18.12 4.90L18.12 4.90Q17.12 4.34 15.89 4.34L15.89 4.34L15.89 4.34Q14.66 4.34 13.66 4.90L13.66 4.90L13.66 4.90Q12.66 5.46 12.08 6.45L12.08 6.45L12.08 6.45Q11.51 7.43 11.51 8.65L11.51 8.65L11.51 8.65Q11.51 9.87 12.08 10.86L12.08 10.86L12.08 10.86Q12.66 11.84 13.66 12.40L13.66 12.40L13.66 12.40Q14.66 12.96 15.89 12.96L15.89 12.96ZM30.55 3.75L31.29 3.75L26.92 13.55L26.21 13.55L21.84 3.75L22.62 3.75L26.59 12.63L30.55 3.75ZM33.08 13.55L33.08 3.75L33.80 3.75L33.80 13.55L33.08 13.55ZM37.21 13.55L37.21 3.75L41.09 3.75L41.09 3.75Q42.62 3.75 43.80 4.38L43.80 4.38L43.80 4.38Q44.98 5.01 45.64 6.12L45.64 6.12L45.64 6.12Q46.30 7.24 46.30 8.65L46.30 8.65L46.30 8.65Q46.30 10.07 45.64 11.18L45.64 11.18L45.64 11.18Q44.98 12.29 43.80 12.92L43.80 12.92L43.80 12.92Q42.62 13.55 41.09 13.55L41.09 13.55L37.21 13.55ZM37.93 12.91L41.03 12.91L41.03 12.91Q42.39 12.91 43.43 12.37L43.43 12.37L43.43 12.37Q44.46 11.83 45.02 10.86L45.02 10.86L45.02 10.86Q45.58 9.90 45.58 8.65L45.58 8.65L45.58 8.65Q45.58 7.41 45.02 6.44L45.02 6.44L45.02 6.44Q44.46 5.47 43.43 4.93L43.43 4.93L43.43 4.93Q42.39 4.40 41.03 4.40L41.03 4.40L37.93 4.40L37.93 12.91ZM47.94 10.11L47.94 9.48L51.53 9.48L51.53 10.11L47.94 10.11ZM52.30 3.75L55.41 3.75L55.41 13.55L54.70 13.55L54.70 4.40L52.30 4.40L52.30 3.75ZM60.84 3.68L60.84 3.68Q62.75 3.68 63.76 4.98L63.76 4.98L63.76 4.98Q64.78 6.27 64.78 8.60L64.78 8.60L64.78 8.60Q64.78 10.22 64.24 11.35L64.24 11.35L64.24 11.35Q63.70 12.47 62.72 13.05L62.72 13.05L62.72 13.05Q61.74 13.62 60.42 13.62L60.42 13.62L60.42 13.62Q59.04 13.62 58.20 13.12L58.20 13.12L58.49 12.54L58.49 12.54Q59.19 12.99 60.42 12.99L60.42 12.99L60.42 12.99Q62.12 12.99 63.09 11.89L63.09 11.89L63.09 11.89Q64.06 10.79 64.06 8.71L64.06 8.71L64.06 8.71Q64.06 8.06 63.98 7.53L63.98 7.53L63.98 7.53Q63.69 8.48 62.84 9.02L62.84 9.02L62.84 9.02Q61.99 9.55 60.86 9.55L60.86 9.55L60.86 9.55Q59.89 9.55 59.14 9.19L59.14 9.19L59.14 9.19Q58.39 8.83 57.99 8.17L57.99 8.17L57.99 8.17Q57.58 7.50 57.58 6.64L57.58 6.64L57.58 6.64Q57.58 5.75 58.00 5.08L58.00 5.08L58.00 5.08Q58.42 4.41 59.16 4.05L59.16 4.05L59.16 4.05Q59.91 3.68 60.84 3.68L60.84 3.68ZM60.96 8.93L60.96 8.93Q61.74 8.93 62.36 8.62L62.36 8.62L62.36 8.62Q62.99 8.32 63.33 7.78L63.33 7.78L63.33 7.78Q63.67 7.25 63.67 6.59L63.67 6.59L63.67 6.59Q63.67 6.01 63.34 5.47L63.34 5.47L63.34 5.47Q63.01 4.94 62.38 4.62L62.38 4.62L62.38 4.62Q61.75 4.30 60.87 4.30L60.87 4.30L60.87 4.30Q59.72 4.30 59.01 4.93L59.01 4.93L59.01 4.93Q58.30 5.57 58.30 6.62L58.30 6.62L58.30 6.62Q58.30 7.67 59.01 8.30L59.01 8.30L59.01 8.30Q59.72 8.93 60.96 8.93L60.96 8.93ZM74.37 3.75L74.37 3.75Q76.22 3.75 77.27 4.63L77.27 4.63L77.27 4.63Q78.32 5.50 78.32 7.06L78.32 7.06L78.32 7.06Q78.32 8.60 77.27 9.47L77.27 9.47L77.27 9.47Q76.22 10.35 74.37 10.35L74.37 10.35L71.57 10.35L71.57 13.55L70.85 13.55L70.85 3.75L74.37 3.75ZM74.37 9.70L74.37 9.70Q75.94 9.70 76.76 9.02L76.76 9.02L76.76 9.02Q77.59 8.33 77.59 7.06L77.59 7.06L77.59 7.06Q77.59 5.78 76.76 5.09L76.76 5.09L76.76 5.09Q75.94 4.40 74.37 4.40L74.37 4.40L71.57 4.40L71.57 9.70L74.37 9.70ZM83.50 13.61L83.50 13.61Q82.46 13.61 81.63 13.13L81.63 13.13L81.63 13.13Q80.79 12.66 80.32 11.81L80.32 11.81L80.32 11.81Q79.84 10.96 79.84 9.90L79.84 9.90L79.84 9.90Q79.84 8.83 80.32 7.99L80.32 7.99L80.32 7.99Q80.79 7.14 81.63 6.66L81.63 6.66L81.63 6.66Q82.46 6.19 83.50 6.19L83.50 6.19L83.50 6.19Q84.53 6.19 85.37 6.66L85.37 6.66L85.37 6.66Q86.20 7.14 86.67 7.99L86.67 7.99L86.67 7.99Q87.15 8.83 87.15 9.90L87.15 9.90L87.15 9.90Q87.15 10.96 86.67 11.81L86.67 11.81L86.67 11.81Q86.20 12.66 85.37 13.13L85.37 13.13L85.37 13.13Q84.53 13.61 83.50 13.61L83.50 13.61ZM83.50 12.98L83.50 12.98Q84.34 12.98 85.00 12.59L85.00 12.59L85.00 12.59Q85.67 12.19 86.05 11.49L86.05 11.49L86.05 11.49Q86.44 10.79 86.44 9.90L86.44 9.90L86.44 9.90Q86.44 9.00 86.05 8.30L86.05 8.30L86.05 8.30Q85.67 7.60 85.00 7.21L85.00 7.21L85.00 7.21Q84.34 6.82 83.50 6.82L83.50 6.82L83.50 6.82Q82.66 6.82 81.99 7.21L81.99 7.21L81.99 7.21Q81.33 7.60 80.94 8.30L80.94 8.30L80.94 8.30Q80.56 9.00 80.56 9.90L80.56 9.90L80.56 9.90Q80.56 10.79 80.94 11.49L80.94 11.49L80.94 11.49Q81.33 12.19 81.99 12.59L81.99 12.59L81.99 12.59Q82.66 12.98 83.50 12.98L83.50 12.98ZM89.99 7.84L89.99 7.84Q90.33 7.04 91.04 6.61L91.04 6.61L91.04 6.61Q91.76 6.19 92.78 6.19L92.78 6.19L92.78 6.87L92.61 6.86L92.61 6.86Q91.39 6.86 90.71 7.62L90.71 7.62L90.71 7.62Q90.02 8.39 90.02 9.74L90.02 9.74L90.02 13.55L89.32 13.55L89.32 6.24L89.99 6.24L89.99 7.84ZM98.17 12.60L98.46 13.09L98.46 13.09Q98.20 13.34 97.80 13.47L97.80 13.47L97.80 13.47Q97.40 13.61 96.96 13.61L96.96 13.61L96.96 13.61Q96.01 13.61 95.49 13.08L95.49 13.08L95.49 13.08Q94.98 12.56 94.98 11.62L94.98 11.62L94.98 6.85L93.63 6.85L93.63 6.24L94.98 6.24L94.98 4.65L95.68 4.65L95.68 6.24L98.00 6.24L98.00 6.85L95.68 6.85L95.68 11.55L95.68 11.55Q95.68 12.26 96.02 12.63L96.02 12.63L96.02 12.63Q96.36 13.01 97.03 13.01L97.03 13.01L97.03 13.01Q97.72 13.01 98.17 12.60L98.17 12.60ZM102.87 6.19L102.87 6.19Q104.23 6.19 104.96 6.88L104.96 6.88L104.96 6.88Q105.69 7.57 105.69 8.92L105.69 8.92L105.69 13.55L105.01 13.55L105.01 12.25L105.01 12.25Q104.66 12.89 103.99 13.25L103.99 13.25L103.99 13.25Q103.32 13.61 102.38 13.61L102.38 13.61L102.38 13.61Q101.16 13.61 100.46 13.03L100.46 13.03L100.46 13.03Q99.75 12.46 99.75 11.52L99.75 11.52L99.75 11.52Q99.75 10.61 100.40 10.04L100.40 10.04L100.40 10.04Q101.05 9.48 102.48 9.48L102.48 9.48L104.99 9.48L104.99 8.89L104.99 8.89Q104.99 7.87 104.43 7.34L104.43 7.34L104.43 7.34Q103.88 6.80 102.82 6.80L102.82 6.80L102.82 6.80Q102.09 6.80 101.42 7.06L101.42 7.06L101.42 7.06Q100.76 7.31 100.30 7.73L100.30 7.73L99.95 7.22L99.95 7.22Q100.49 6.73 101.26 6.46L101.26 6.46L101.26 6.46Q102.03 6.19 102.87 6.19L102.87 6.19ZM102.48 13.03L102.48 13.03Q103.39 13.03 104.03 12.61L104.03 12.61L104.03 12.61Q104.66 12.19 104.99 11.40L104.99 11.40L104.99 10.02L102.49 10.02L102.49 10.02Q101.42 10.02 100.93 10.42L100.93 10.42L100.93 10.42Q100.45 10.81 100.45 11.49L100.45 11.49L100.45 11.49Q100.45 12.21 100.98 12.62L100.98 12.62L100.98 12.62Q101.51 13.03 102.48 13.03L102.48 13.03ZM108.57 13.55L108.57 3.16L109.27 3.16L109.27 13.55L108.57 13.55Z"></path></g><!----><!----></svg>